<?xml version="1.0"?>
<svg xmlns="http://www.w3.org/2000/svg" viewBox="0 0 24 24" enable-background="new 0 0 24 24">
    <path d="M21.231,12.923c-0.695,0-1.098,0.174-1.846,0.707c-0.999,0.711-1.593,1.18-1.846,0.216 c-0.253-0.964-1.128-6.322-1.128-6.322s-4.344-0.834-5.334-1.062c-0.937-0.216-1.457-0.635-0.705-1.862 c0.502-0.82,0.705-1.125,0.705-1.83C11.077,1.24,9.837,0,8.308,0c-1.53,0-2.769,1.24-2.769,2.769c0,0.694,0.235,1.169,0.692,1.832 c0.865,1.255,0.346,1.644-0.692,1.861C4.423,6.694,0,7.523,0,7.523s0,2.449,0,6.188c0.012,0.046,0.025,0.094,0.037,0.135 c0.264,0.922,0.973,0.419,1.846-0.216c0.562-0.408,1.151-0.707,1.846-0.707c1.53,0,2.769,1.24,2.769,2.769s-1.24,2.769-2.769,2.769 c-0.735,0-1.244-0.234-1.895-0.759c-0.651-0.525-1.615-1.169-1.797-0.164C0.026,17.595,0.013,17.667,0,17.745C0,21.693,0,24,0,24 h16.411c0,0,0.945-5.45,1.128-6.462c0.182-1.005,0.767-0.654,1.797,0.164c0.523,0.415,1.16,0.759,1.895,0.759 c1.53,0,2.769-1.24,2.769-2.769S22.76,12.923,21.231,12.923z"/>
</svg>
