<svg version="1" xmlns="http://www.w3.org/2000/svg" viewBox="0 0 489 489" fill="#8c8c8c"><path d="M424 234c-13 0-24 4-34 10a12 12 0 0 1-18-10v-79c0-12-11-21-23-21h-95a12 12 0 0 1-11-18 66 66 0 1 0-115 0 12 12 0 0 1-10 18H22c-12 0-22 9-22 21v77a12 12 0 0 0 18 10 66 66 0 1 1 0 116 12 12 0 0 0-18 10v81c0 12 10 22 22 22h327c12 0 23-10 23-22v-83a12 12 0 0 1 18-10c10 6 21 10 34 10a66 66 0 1 0 0-132z" stroke="#fff" stroke-width="2"/><text x="183" y="427" fill="#fff" text-anchor="middle" alignment-baseline="central" font-size="2.3rem" font-weight="700" font-family="Georgia,Times,Times New Roman,serif">FORUM</text></svg>