<svg xmlns="http://www.w3.org/2000/svg" viewBox="0 0 24 24" fill="#EB8CBE" width="100%" height="100%" x="0" y="0" fill="none"><path d="M21.231 12.923c-.695 0-1.098.174-1.846.707-.999.711-1.593 1.18-1.846.216-.253-.964-1.128-6.322-1.128-6.322s-4.344-.834-5.334-1.062c-.937-.216-1.457-.635-.705-1.862.502-.82.705-1.125.705-1.83a2.77 2.77 0 0 0-5.538-.001c0 .694.235 1.169.692 1.832.865 1.255.346 1.644-.692 1.861C4.423 6.694 0 7.523 0 7.523v6.188l.037.135c.264.922.973.419 1.846-.216.562-.408 1.151-.707 1.846-.707a2.769 2.769 0 1 1 0 5.538c-.735 0-1.244-.234-1.895-.759S.219 16.533.037 17.538a8.49 8.49 0 0 0-.037.207V24h16.411s.945-5.45 1.128-6.462c.182-1.005.767-.654 1.797.164.523.415 1.16.759 1.895.759a2.769 2.769 0 1 0 0-5.538z" stroke="#fff" stroke-width="0.2"/><text x="8.4" y="20.5" fill="#fff" text-anchor="middle" alignment-baseline="central" font-size="0.15rem" font-weight="700" font-family="Georgia,Times,Times New Roman,serif">AKTUELLES</text></svg>