<svg xmlns="http://www.w3.org/2000/svg" version="1" fill="#EB8CBE" width="125.05263161417076" height="115.91228019688526" style=""><rect id="backgroundrect" width="100%" height="100%" x="0" y="0" fill="none" stroke="none" class="selected" style=""/><g class="currentLayer" style=""><title>Layer 1</title><path d="M107.56869310232219,55.47255714720632 c-3.2666501998901367,0 -6.030738830566406,1.0051231384277344 -8.543546676635742,2.512807846069336 a3.015369415283203,3.015369415283203 0 0 1 -4.523054122924805,-2.512807846069336 v-19.851181983947754 c0,-3.015369415283203 -2.7640886306762695,-5.2768964767456055 -5.779458045959473,-5.2768964767456055 h-23.87167453765869 a3.015369415283203,3.015369415283203 0 0 1 -2.7640886306762695,-4.523054122924805 a16.584531784057617,16.584531784057617 0 1 0 -28.897290229797363,0 a3.015369415283203,3.015369415283203 0 0 1 -2.512807846069336,4.523054122924805 H6.553817690334881 c-3.015369415283203,0 -5.528177261352539,2.2615270614624023 -5.528177261352539,5.2768964767456055 v19.348620414733887 a3.015369415283203,3.015369415283203 0 0 0 4.523054122924805,2.512807846069336 a16.584531784057617,16.584531784057617 0 1 1 0,29.148571014404297 a3.015369415283203,3.015369415283203 0 0 0 -4.523054122924805,2.512807846069336 v20.35374355316162 c0,3.015369415283203 2.512807846069336,5.528177261352539 5.528177261352539,5.528177261352539 h82.16881656646729 c3.015369415283203,0 5.779458045959473,-2.512807846069336 5.779458045959473,-5.528177261352539 v-20.856305122375492 a3.015369415283203,3.015369415283203 0 0 1 4.523054122924805,-2.512807846069336 c2.512807846069336,1.5076847076416016 5.2768964767456055,2.512807846069336 8.543546676635742,2.512807846069336 a16.584531784057617,16.584531784057617 0 1 0 0,-33.169063568115234 z" stroke="#fff" stroke-width="2" id="svg_1" class=""/><text x="143.92303566948186" y="123.77146149994222" fill="#fff" text-anchor="middle" alignment-baseline="central" font-size="2.3rem" font-weight="700" font-family="Georgia,Times,Times New Roman,serif" id="svg_2" class="" transform="matrix(0.3377404621327784,0,0,0.3377404621327784,-0.46490113441543857,59.03977832603572) ">AKTUELLES</text></g></svg>