<svg xmlns="http://www.w3.org/2000/svg" version="1" fill="#EB8CBE" width="auto" height="auto"><rect width="auto" height="auto" fill="none" class="selected"/><g class="currentLayer"><path d="M107.569 55.473c-3.267 0-6.031 1.005-8.544 2.512a3.015 3.015 0 0 1-4.523-2.512V35.62c0-3.015-2.764-5.277-5.78-5.277H64.852a3.015 3.015 0 0 1-2.764-4.523 16.585 16.585 0 1 0-28.897 0 3.015 3.015 0 0 1-2.513 4.523H6.554c-3.016 0-5.528 2.262-5.528 5.277V54.97a3.015 3.015 0 0 0 4.523 2.513 16.585 16.585 0 1 1 0 29.148 3.015 3.015 0 0 0-4.523 2.513v20.354c0 3.015 2.512 5.528 5.528 5.528h82.169c3.015 0 5.78-2.513 5.78-5.528V88.642a3.015 3.015 0 0 1 4.522-2.513c2.513 1.507 5.277 2.513 8.544 2.513a16.585 16.585 0 1 0 0-33.17z" stroke="#fff" stroke-width="2"/><text x="143.923" y="123.771" fill="#fff" text-anchor="middle" alignment-baseline="central" font-size="2.3rem" font-weight="700" font-family="Georgia,Times,Times New Roman,serif" transform="translate(-.465 59.04) scale(.33774)">AKTUELLES</text></g></svg>